<?xml version="1.0" standalone="no"?><svg xmlns="http://www.w3.org/2000/svg" viewBox="0 0 1440 320"><path fill="#262626" fill-opacity="1" d="M0,192L0,64L62.6,64L62.6,128L125.2,128L125.2,256L187.8,256L187.8,192L250.4,192L250.4,64L313,64L313,224L375.7,224L375.7,64L438.3,64L438.3,128L500.9,128L500.9,192L563.5,192L563.5,96L626.1,96L626.1,128L688.7,128L688.7,192L751.3,192L751.3,96L813.9,96L813.9,128L876.5,128L876.5,256L939.1,256L939.1,192L1001.7,192L1001.7,32L1064.3,32L1064.3,160L1127,160L1127,192L1189.6,192L1189.6,224L1252.2,224L1252.2,128L1314.8,128L1314.8,64L1377.4,64L1377.4,64L1440,64L1440,0L1377.4,0L1377.4,0L1314.8,0L1314.8,0L1252.2,0L1252.2,0L1189.6,0L1189.6,0L1127,0L1127,0L1064.3,0L1064.3,0L1001.7,0L1001.7,0L939.1,0L939.1,0L876.5,0L876.5,0L813.9,0L813.9,0L751.3,0L751.3,0L688.7,0L688.7,0L626.1,0L626.1,0L563.5,0L563.5,0L500.9,0L500.9,0L438.3,0L438.3,0L375.7,0L375.7,0L313,0L313,0L250.4,0L250.4,0L187.8,0L187.8,0L125.2,0L125.2,0L62.6,0L62.6,0L0,0L0,0Z"></path></svg>